<?xml version="1.0" encoding="UTF-8" standalone="no"?>
<!-- Created with Inkscape (http://www.inkscape.org/) -->

<svg
   xmlns:dc="http://purl.org/dc/elements/1.1/"
   xmlns:cc="http://creativecommons.org/ns#"
   xmlns:rdf="http://www.w3.org/1999/02/22-rdf-syntax-ns#"
   xmlns:svg="http://www.w3.org/2000/svg"
   xmlns="http://www.w3.org/2000/svg"
   xmlns:sodipodi="http://sodipodi.sourceforge.net/DTD/sodipodi-0.dtd"
   xmlns:inkscape="http://www.inkscape.org/namespaces/inkscape"
   width="225mm"
   height="225mm"
   viewBox="0 0 225 225"
   version="1.1"
   id="svg3806"
   inkscape:version="0.92.2 5c3e80d, 2017-08-06"
   sodipodi:docname="python-logo.svg"
   inkscape:export-filename="/Users/ewdurbin/Desktop/oldskoolcool.png"
   inkscape:export-xdpi="96"
   inkscape:export-ydpi="96">
  <defs
     id="defs3800" />
  <sodipodi:namedview
     id="base"
     pagecolor="#ffffff"
     bordercolor="#666666"
     borderopacity="1.0"
     inkscape:pageopacity="0"
     inkscape:pageshadow="2"
     inkscape:zoom="1"
     inkscape:cx="354.88819"
     inkscape:cy="425.80025"
     inkscape:document-units="mm"
     inkscape:current-layer="layer1"
     showgrid="true"
     borderlayer="true"
     inkscape:showpageshadow="false"
     inkscape:snap-bbox="true"
     inkscape:window-width="1648"
     inkscape:window-height="1091"
     inkscape:window-x="755"
     inkscape:window-y="27"
     inkscape:window-maximized="0"
     inkscape:pagecheckerboard="true">
    <inkscape:grid
       type="xygrid"
       id="grid3808"
       spacingx="6.6145835"
       spacingy="6.6145835"
       empspacing="1"
       dotted="true" />
    <inkscape:grid
       type="xygrid"
       id="grid3810"
       enabled="false" />
  </sodipodi:namedview>
  <metadata
     id="metadata3803">
    <rdf:RDF>
      <cc:Work
         rdf:about="">
        <dc:format>image/svg+xml</dc:format>
        <dc:type
           rdf:resource="http://purl.org/dc/dcmitype/StillImage" />
        <dc:title></dc:title>
      </cc:Work>
    </rdf:RDF>
  </metadata>
  <g
     inkscape:label="Layer 1"
     inkscape:groupmode="layer"
     id="layer1"
     transform="translate(0,-72)">
    <g
       id="g53">
      <path
         style="fill:#fefe00;stroke-width:0.26458335"
         d="m 59.531251,287.07812 v -3.30729 h -3.307292 -3.307291 v -3.30729 -3.30729 h -3.307292 -3.307292 v -3.3073 -3.30729 h -3.307292 -3.307291 v -13.22917 -13.22916 h 3.307291 3.307292 v -6.61459 -6.61458 h 3.307292 3.307292 v -3.30729 -3.30729 h 6.614583 6.614583 v -3.30729 -3.3073 h 6.614584 6.614583 v -3.30729 -3.30729 h 3.307292 3.307292 v -3.30729 -3.30729 h -6.614584 -6.614583 v 3.30729 3.30729 h -6.614584 -6.614583 v 3.30729 3.30729 H 42.994792 26.458334 v 6.61459 6.61458 H 23.151042 19.84375 v -6.61458 -6.61459 h -3.307291 -3.307292 v 3.3073 3.30729 H 9.9218752 6.6145835 v -3.30729 -3.3073 h 3.3072917 3.3072918 v -3.30729 -3.30729 h 3.307292 3.307291 v -9.92187 -9.92188 h -3.307291 -3.307292 v -3.30729 -3.30729 H 9.9218752 6.6145835 v -19.84375 -19.84375 h 3.3072917 3.3072918 v -3.3073 -3.30729 h 3.307292 3.307291 v -3.30729 -3.30729 h 6.614584 6.614583 v -3.30729 -3.30729 h 3.307292 3.307292 V 111.79166 98.562492 h 3.307291 3.307292 v -9.921875 -9.921875 h 9.921875 9.921875 v 3.307292 3.307291 h 3.307292 3.307292 v -3.307291 -3.307292 h 13.229167 13.229167 v 6.614583 6.614584 h 3.307288 3.3073 v 13.229171 13.22916 h 3.30729 3.30729 v 3.30729 3.3073 h 9.92187 9.92188 v 3.30729 3.30729 h 6.61458 6.61459 v 3.30729 3.30729 h 3.30729 3.30729 v 3.30729 3.3073 h 3.30729 3.30729 v 6.61458 6.61458 h 3.30729 3.3073 v 16.53646 16.53646 h -3.3073 -3.30729 v 6.61458 6.61459 h -3.30729 -3.30729 v 3.30729 3.30729 h -3.30729 -3.30729 v 3.30729 3.30729 h -3.3073 -3.30729 v 3.3073 3.30729 h -3.30729 -3.30729 v 3.30729 3.30729 h 6.61458 6.61459 v 3.30729 3.30729 h 3.30729 3.30729 v 3.3073 3.30729 h 3.30729 3.30729 v -3.30729 -3.3073 h 3.30729 3.3073 v -3.30729 -3.30729 h 9.92187 9.92188 v 3.30729 3.30729 h 6.61458 6.61458 v -3.30729 -3.30729 h 3.30729 3.3073 v -3.30729 -3.30729 h 3.30729 3.30729 v -3.30729 -3.3073 h 3.30729 3.30729 v 16.53646 16.53646 h -3.30729 -3.30729 v 3.30729 3.30729 h -3.30729 -3.30729 v 3.3073 3.30729 h -3.3073 -3.30729 v 3.30729 3.30729 h -6.61458 -6.61458 v -3.30729 -3.30729 h -6.61459 -6.61458 v 3.30729 3.30729 h -3.30729 -3.30729 v 3.30729 3.3073 H 158.75 152.13542 v 3.30729 3.30729 H 135.59896 119.0625 v -3.30729 -3.30729 h -6.61458 -6.61458 v 3.30729 3.30729 h -6.614588 -6.614584 v 3.30729 3.30729 H 76.06771 59.531251 Z m 39.687501,-85.98958 v -3.3073 h 3.307288 3.3073 v -6.61458 -6.61458 h -3.3073 -3.307288 v 3.30729 3.30729 H 95.91146 92.604168 v 3.30729 3.30729 h -3.307292 -3.307291 v 3.3073 3.30729 h 6.614583 6.614584 z"
         id="path65"
         inkscape:connector-curvature="0" />
      <path
         style="fill:#fe0000;stroke-width:0.26458335"
         d="m 59.531251,287.07812 v -3.30729 h -3.307292 -3.307291 v -3.30729 -3.30729 h -3.307292 -3.307292 v -3.3073 -3.30729 h -3.307292 -3.307291 v -13.22917 -13.22916 h 3.307291 3.307292 v -6.61459 -6.61458 h 3.307292 3.307292 v -3.30729 -3.30729 h 6.614583 6.614583 v -3.30729 -3.3073 h 6.614584 6.614583 v -3.30729 -3.30729 h 3.307292 3.307292 v -3.30729 -3.30729 h -6.614584 -6.614583 v 3.30729 3.30729 h -6.614584 -6.614583 v 3.30729 3.30729 H 42.994792 26.458334 v 6.61459 6.61458 H 23.151042 19.84375 v -6.61458 -6.61459 h -3.307291 -3.307292 v 3.3073 3.30729 H 9.9218752 6.6145835 v -3.30729 -3.3073 h 3.3072917 3.3072918 v -3.30729 -3.30729 h 3.307292 3.307291 v -9.92187 -9.92188 h -3.307291 -3.307292 v -3.30729 -3.30729 H 9.9218752 6.6145835 v -19.84375 -19.84375 h 3.3072917 3.3072918 v -3.3073 -3.30729 h 3.307292 3.307291 v -3.30729 -3.30729 h 6.614584 6.614583 v -3.30729 -3.30729 h 3.307292 3.307292 V 111.79166 98.562492 h 3.307291 3.307292 v -9.921875 -9.921875 h 9.921875 9.921875 v 3.307292 3.307291 h 3.307292 3.307292 v -3.307291 -3.307292 h 13.229167 13.229167 v 6.614583 6.614584 h 3.307288 3.3073 v 13.229171 13.22916 h 3.30729 3.30729 v 3.30729 3.3073 h 9.92187 9.92188 v 3.30729 3.30729 h 6.61458 6.61459 v 3.30729 3.30729 h 3.30729 3.30729 v 3.30729 3.3073 h 3.30729 3.30729 v 6.61458 6.61458 h 3.30729 3.3073 v 16.53646 16.53646 h -3.3073 -3.30729 v 6.61458 6.61459 h -3.30729 -3.30729 v 3.30729 3.30729 h -3.30729 -3.30729 v 3.30729 3.30729 h -3.3073 -3.30729 v 3.3073 3.30729 h -3.30729 -3.30729 v 3.30729 3.30729 h 6.61458 6.61459 v 3.30729 3.30729 h 3.30729 3.30729 v 3.3073 3.30729 h 3.30729 3.30729 v -3.30729 -3.3073 h 3.30729 3.3073 v -3.30729 -3.30729 h 9.92187 9.92188 v 3.30729 3.30729 h 6.61458 6.61458 v -3.30729 -3.30729 h 3.30729 3.3073 v -3.30729 -3.30729 h 3.30729 3.30729 v -3.30729 -3.3073 h 3.30729 3.30729 v 16.53646 16.53646 h -3.30729 -3.30729 v 3.30729 3.30729 h -3.30729 -3.30729 v 3.3073 3.30729 h -3.3073 -3.30729 v 3.30729 3.30729 h -6.61458 -6.61458 v -3.30729 -3.30729 h -6.61459 -6.61458 v 3.30729 3.30729 h -3.30729 -3.30729 v 3.30729 3.3073 H 158.75 152.13542 v 3.30729 3.30729 H 135.59896 119.0625 v -3.30729 -3.30729 h -6.61458 -6.61458 v 3.30729 3.30729 h -6.614588 -6.614584 v 3.30729 3.30729 H 76.06771 59.531251 Z m 39.687501,-85.98958 v -3.3073 h 3.307288 3.3073 v -6.61458 -6.61458 h -3.3073 -3.307288 v 3.30729 3.30729 H 95.91146 92.604168 v 3.30729 3.30729 h -3.307292 -3.307291 v 3.3073 3.30729 h 6.614583 6.614584 z M 59.531251,121.71353 v -3.30729 h -3.307292 -3.307291 v -6.61458 -6.61458 h 3.307291 3.307292 v -3.3073 -3.307288 h -6.614583 -6.614584 v 13.229168 13.22917 h 6.614584 6.614583 z m 26.458334,0 v -3.30729 h -6.614584 -6.614583 v -6.61458 -6.61458 h 6.614583 6.614584 v -3.3073 -3.307288 H 76.06771 66.145834 v 13.229168 13.22917 h 9.921876 9.921875 z"
         id="path63"
         inkscape:connector-curvature="0" />
      <path
         style="fill:#00fe00;stroke-width:0.26458335"
         d="m 59.531251,287.07812 v -3.30729 h -3.307292 -3.307291 v -3.30729 -3.30729 h -3.307292 -3.307292 v -3.3073 -3.30729 h -3.307292 -3.307291 v -13.22917 -13.22916 h 3.307291 3.307292 v -6.61459 -6.61458 h 3.307292 3.307292 v -3.30729 -3.30729 h 6.614583 6.614583 v -3.30729 -3.3073 h 6.614584 6.614583 v -3.30729 -3.30729 h 3.307292 3.307292 v -3.30729 -3.30729 h -6.614584 -6.614583 v 3.30729 3.30729 h -6.614584 -6.614583 v 3.30729 3.30729 H 42.994792 26.458334 v -3.30729 -3.30729 h 3.307292 3.307291 v -3.30729 -3.30729 h 3.307292 3.307292 v -3.30729 -3.3073 h 3.307291 3.307292 v -3.30729 -3.30729 h 3.307292 3.307292 v -3.30729 -3.30729 h -6.614584 -6.614583 v 3.30729 3.30729 h -3.307292 -3.307292 v 3.30729 3.30729 h -3.307291 -3.307292 v 3.3073 3.30729 H 23.151042 19.84375 v -6.61459 -6.61458 h -3.307291 -3.307292 v -3.30729 -3.30729 H 9.9218752 6.6145835 v -19.84375 -19.84375 h 3.3072917 3.3072918 v -3.3073 -3.30729 h 3.307292 3.307291 v -3.30729 -3.30729 h 6.614584 6.614583 v -3.30729 -3.30729 h 3.307292 3.307292 V 111.79166 98.562492 h 3.307291 3.307292 v -9.921875 -9.921875 h 9.921875 9.921875 v 3.307292 3.307291 h 3.307292 3.307292 v -3.307291 -3.307292 h 13.229167 13.229167 v 6.614583 6.614584 h 3.307288 3.3073 v 13.229171 13.22916 h 3.30729 3.30729 v 3.30729 3.3073 h 9.92187 9.92188 v 3.30729 3.30729 h 6.61458 6.61459 v 3.30729 3.30729 h 3.30729 3.30729 v 3.30729 3.3073 h 3.30729 3.30729 v 6.61458 6.61458 h 3.30729 3.3073 v 16.53646 16.53646 h -3.3073 -3.30729 v 6.61458 6.61459 h -3.30729 -3.30729 v 3.30729 3.30729 h -3.30729 -3.30729 v 3.30729 3.30729 h -3.3073 -3.30729 v 3.3073 3.30729 h -3.30729 -3.30729 v 3.30729 3.30729 h 6.61458 6.61459 v 3.30729 3.30729 h 3.30729 3.30729 v 3.3073 3.30729 h 3.30729 3.30729 v -3.30729 -3.3073 h 3.30729 3.3073 v -3.30729 -3.30729 h 9.92187 9.92188 v 3.30729 3.30729 h 6.61458 6.61458 v -3.30729 -3.30729 h 3.30729 3.3073 v -3.30729 -3.30729 h 3.30729 3.30729 v -3.30729 -3.3073 h 3.30729 3.30729 v 16.53646 16.53646 h -3.30729 -3.30729 v 3.30729 3.30729 h -3.30729 -3.30729 v 3.3073 3.30729 h -3.3073 -3.30729 v 3.30729 3.30729 h -6.61458 -6.61458 v -3.30729 -3.30729 h -6.61459 -6.61458 v 3.30729 3.30729 h -3.30729 -3.30729 v 3.30729 3.3073 H 158.75 152.13542 v 3.30729 3.30729 H 135.59896 119.0625 v -3.30729 -3.30729 h -6.61458 -6.61458 v 3.30729 3.30729 h -6.614588 -6.614584 v 3.30729 3.30729 H 76.06771 59.531251 Z m 39.687501,-85.98958 v -3.3073 h 3.307288 3.3073 v -6.61458 -6.61458 h -3.3073 -3.307288 v 3.30729 3.30729 H 95.91146 92.604168 v 3.30729 3.30729 h -3.307292 -3.307291 v 3.3073 3.30729 h 6.614583 6.614584 z M 59.531251,121.71353 v -3.30729 h -3.307292 -3.307291 v -6.61458 -6.61458 h 3.307291 3.307292 v -3.3073 -3.307288 h -6.614583 -6.614584 v 13.229168 13.22917 h 6.614584 6.614583 z m 26.458334,0 v -3.30729 h -6.614584 -6.614583 v -6.61458 -6.61458 h 6.614583 6.614584 v -3.3073 -3.307288 H 76.06771 66.145834 v 13.229168 13.22917 h 9.921876 9.921875 z"
         id="path61"
         inkscape:connector-curvature="0" />
      <path
         style="fill:#0000fe;stroke-width:0.26458335"
         d="m 59.531251,287.07812 v -3.30729 h -3.307292 -3.307291 v -3.30729 -3.30729 h -3.307292 -3.307292 v -3.3073 -3.30729 h -3.307292 -3.307291 v -13.22917 -13.22916 h 3.307291 3.307292 v -6.61459 -6.61458 h 3.307292 3.307292 v -3.30729 -3.30729 h 6.614583 6.614583 v -3.30729 -3.3073 h 6.614584 6.614583 v -3.30729 -3.30729 h 3.307292 3.307292 v -3.30729 -3.30729 h -6.614584 -6.614583 v 3.30729 3.30729 h -6.614584 -6.614583 v 3.30729 3.30729 H 42.994792 26.458334 v -3.30729 -3.30729 h 16.536458 16.536459 v -3.30729 -3.30729 h 6.614583 6.614584 v -3.30729 -3.3073 h 6.614583 6.614584 v -3.30729 -3.30729 h 3.307291 3.307292 v -3.30729 -3.30729 h -3.307292 -3.307291 v -3.30729 -3.3073 h -3.307292 -3.307292 v 6.61459 6.61458 h -6.614583 -6.614584 v 3.30729 3.30729 h -6.614583 -6.614583 v 3.3073 3.30729 h -3.307292 -3.307292 v -6.61459 -6.61458 h 3.307292 3.307292 v -6.61458 -6.61459 h 6.614583 6.614583 v -3.30729 -3.30729 h 6.614584 6.614583 v -3.30729 -3.30729 h 3.307292 3.307292 v -3.3073 -3.30729 h -3.307292 -3.307292 v -3.30729 -3.30729 H 76.06771 72.760418 v 6.61458 6.61459 h -3.307292 -3.307292 v -3.3073 -3.30729 h -3.307291 -3.307292 v 6.61459 6.61458 h -3.307292 -3.307291 v -3.30729 -3.30729 h -3.307292 -3.307292 v 3.30729 3.30729 h -3.307292 -3.307291 v -3.30729 -3.30729 h -3.307292 -3.307292 v 3.30729 3.30729 h -3.307291 -3.307292 v -3.30729 -3.30729 H 19.84375 13.229167 v 6.61458 6.61458 h 3.307292 3.307291 v 3.3073 3.30729 h 3.307292 3.307292 v -3.30729 -3.3073 h 3.307292 3.307291 v 3.3073 3.30729 h 3.307292 3.307292 v -3.30729 -3.3073 h 3.307291 3.307292 v 3.3073 3.30729 h -3.307292 -3.307291 v 3.30729 3.30729 h -3.307292 -3.307292 v 3.30729 3.30729 h -3.307291 -3.307292 v 3.3073 3.30729 H 23.151042 19.84375 v -6.61459 -6.61458 h -3.307291 -3.307292 v -3.30729 -3.30729 H 9.9218752 6.6145835 v -19.84375 -19.84375 h 3.3072917 3.3072918 v -3.3073 -3.30729 h 3.307292 3.307291 v -3.30729 -3.30729 h 6.614584 6.614583 v -3.30729 -3.30729 h 3.307292 3.307292 V 111.79166 98.562492 h 3.307291 3.307292 v -9.921875 -9.921875 h 9.921875 9.921875 v 3.307292 3.307291 h 3.307292 3.307292 v -3.307291 -3.307292 h 13.229167 13.229167 v 6.614583 6.614584 h 3.307288 3.3073 v 13.229171 13.22916 h 3.30729 3.30729 v 3.30729 3.3073 h 9.92187 9.92188 v 3.30729 3.30729 h 6.61458 6.61459 v 3.30729 3.30729 h 3.30729 3.30729 v 3.30729 3.3073 h 3.30729 3.30729 v 6.61458 6.61458 h 3.30729 3.3073 v 16.53646 16.53646 h -3.3073 -3.30729 v 6.61458 6.61459 h -3.30729 -3.30729 v 3.30729 3.30729 h -3.30729 -3.30729 v 3.30729 3.30729 h -3.3073 -3.30729 v 3.3073 3.30729 h -3.30729 -3.30729 v 3.30729 3.30729 h 6.61458 6.61459 v 3.30729 3.30729 h 3.30729 3.30729 v 3.3073 3.30729 h 3.30729 3.30729 v -3.30729 -3.3073 h 3.30729 3.3073 v -3.30729 -3.30729 h 9.92187 9.92188 v 3.30729 3.30729 h 6.61458 6.61458 v -3.30729 -3.30729 h 3.30729 3.3073 v -3.30729 -3.30729 h 3.30729 3.30729 v -3.30729 -3.3073 h 3.30729 3.30729 v 16.53646 16.53646 h -3.30729 -3.30729 v 3.30729 3.30729 h -3.30729 -3.30729 v 3.3073 3.30729 h -3.3073 -3.30729 v 3.30729 3.30729 h -6.61458 -6.61458 v -3.30729 -3.30729 h -6.61459 -6.61458 v 3.30729 3.30729 h -3.30729 -3.30729 v 3.30729 3.3073 H 158.75 152.13542 v 3.30729 3.30729 H 135.59896 119.0625 v -3.30729 -3.30729 h -6.61458 -6.61458 v 3.30729 3.30729 h -6.614588 -6.614584 v 3.30729 3.30729 H 76.06771 59.531251 Z m 19.84375,-6.61458 v -3.30729 h 3.307292 3.307292 v 3.30729 3.30729 h 3.307291 3.307292 v -3.30729 -3.30729 h 6.614584 6.614588 v -3.3073 -3.30729 H 92.604168 79.375001 v -3.30729 -3.30729 H 76.06771 72.760418 v -13.22917 -13.22917 h 3.307292 3.307291 v -3.30729 -3.30729 h 3.307292 3.307292 v -3.30729 -3.30729 h 6.614583 6.614584 v -3.30729 -3.3073 h 3.307288 3.3073 v -3.30729 -3.30729 h 3.30729 3.30729 v -3.30729 -3.30729 h 3.30729 3.30729 v -3.30729 -3.3073 h 3.30729 3.3073 v -3.30729 -3.30729 h 3.30729 3.30729 v -9.92187 -9.92188 h -3.30729 -3.30729 v -3.30729 -3.30729 h -3.3073 -3.30729 v -9.92188 -9.92187 h -3.30729 -3.30729 v -3.3073 -3.30729 h -3.30729 -3.30729 v 3.30729 3.3073 h -3.3073 -3.307288 v 3.30729 3.30729 H 95.91146 92.604168 v -3.30729 -3.30729 h -3.307292 -3.307291 v 6.61458 6.61458 h 6.614583 6.614584 v 3.30729 3.3073 H 95.91146 92.604168 v 9.92187 9.92188 h 3.307292 3.307292 v 3.30729 3.30729 H 95.91146 92.604168 v 3.30729 3.30729 h -3.307292 -3.307291 v 3.3073 3.30729 h 6.614583 6.614584 v -3.30729 -3.3073 h 3.307288 3.3073 v 6.61459 6.61458 h -9.92188 -9.921875 v 6.61458 6.61459 H 76.06771 66.145834 v 3.30729 3.30729 h 3.307292 3.307292 v 3.30729 3.30729 h -9.921875 -9.921875 v 3.3073 3.30729 h -3.307292 -3.307292 v 3.30729 3.30729 h 9.921875 9.921875 v 3.30729 3.30729 h -9.921875 -9.921875 v 6.61459 6.61458 h 13.229167 13.229167 v 3.30729 3.3073 h -6.614584 -6.614583 v 3.30729 3.30729 h 9.921875 9.921875 z m 26.458339,-89.29688 v -6.61458 h -3.3073 -3.307288 v -3.30729 -3.3073 h 3.307288 3.3073 v -3.30729 -3.30729 h -3.3073 -3.307288 v -3.30729 -3.30729 h 3.307288 3.3073 v 3.30729 3.30729 h 3.30729 3.30729 v -3.30729 -3.30729 h 3.30729 3.30729 v 3.30729 3.30729 h -3.30729 -3.30729 v 3.30729 3.30729 h 6.61458 6.61459 v 3.3073 3.30729 h -6.61459 -6.61458 v 3.30729 3.30729 h 3.30729 3.30729 v 3.30729 3.30729 h -6.61458 -6.61458 z m 46.30208,82.68229 v -3.30729 H 135.59896 119.0625 v -3.30729 -3.30729 h -3.30729 -3.30729 v 3.30729 3.30729 h 3.30729 3.30729 v 3.30729 3.3073 h 16.53646 16.53646 z m 46.30208,-13.22916 v -3.3073 h -6.61458 -6.61458 v 3.3073 3.30729 h 6.61458 6.61458 z M 59.531251,121.71353 v -3.30729 h -3.307292 -3.307291 v -6.61458 -6.61458 h 3.307291 3.307292 v -3.3073 -3.307288 h -6.614583 -6.614584 v 13.229168 13.22917 h 6.614584 6.614583 z m 26.458334,0 v -3.30729 h -6.614584 -6.614583 v -6.61458 -6.61458 h 6.614583 6.614584 v -3.3073 -3.307288 H 76.06771 66.145834 v 13.229168 13.22917 h 9.921876 9.921875 z"
         id="path59"
         inkscape:connector-curvature="0" />
      <path
         style="fill:#7f7f00;stroke-width:0.26458335"
         d="m 59.531251,287.07812 v -3.30729 h -3.307292 -3.307291 v -3.30729 -3.30729 h -3.307292 -3.307292 v -3.3073 -3.30729 h -3.307292 -3.307291 v -13.22917 -13.22916 h 3.307291 3.307292 v -6.61459 -6.61458 h 3.307292 3.307292 v -3.30729 -3.30729 h 6.614583 6.614583 v -3.30729 -3.3073 h 6.614584 6.614583 v -3.30729 -3.30729 h 3.307292 3.307292 v -3.30729 -3.30729 h -6.614584 -6.614583 v 3.30729 3.30729 h -6.614584 -6.614583 v 3.30729 3.30729 H 42.994792 26.458334 v -3.30729 -3.30729 h 16.536458 16.536459 v -3.30729 -3.30729 h 6.614583 6.614584 v -3.30729 -3.3073 h 6.614583 6.614584 v -3.30729 -3.30729 h 3.307291 3.307292 v -3.30729 -3.30729 h -3.307292 -3.307291 v -3.30729 -3.3073 h -3.307292 -3.307292 v 6.61459 6.61458 h -6.614583 -6.614584 v 3.30729 3.30729 h -6.614583 -6.614583 v 3.3073 3.30729 h -3.307292 -3.307292 v -6.61459 -6.61458 h 3.307292 3.307292 v -6.61458 -6.61459 h 6.614583 6.614583 v -3.30729 -3.30729 h 6.614584 6.614583 v -3.30729 -3.30729 h 3.307292 3.307292 v -3.3073 -3.30729 h -3.307292 -3.307292 v -3.30729 -3.30729 H 76.06771 72.760418 v 6.61458 6.61459 h -3.307292 -3.307292 v -3.3073 -3.30729 h -3.307291 -3.307292 v 6.61459 6.61458 h -3.307292 -3.307291 v -3.30729 -3.30729 h -3.307292 -3.307292 v 3.30729 3.30729 h -3.307292 -3.307291 v -3.30729 -3.30729 h -3.307292 -3.307292 v 3.30729 3.30729 h -3.307291 -3.307292 v -3.30729 -3.30729 H 19.84375 13.229167 v 6.61458 6.61458 h 3.307292 3.307291 v 3.3073 3.30729 h 3.307292 3.307292 v -3.30729 -3.3073 h 3.307292 3.307291 v 3.3073 3.30729 h 3.307292 3.307292 v -3.30729 -3.3073 h 3.307291 3.307292 v 3.3073 3.30729 h -3.307292 -3.307291 v 3.30729 3.30729 h -3.307292 -3.307292 v 3.30729 3.30729 h -3.307291 -3.307292 v 3.3073 3.30729 H 23.151042 19.84375 v -6.61459 -6.61458 h -3.307291 -3.307292 v -3.30729 -3.30729 H 9.9218752 6.6145835 v -19.84375 -19.84375 h 3.3072917 3.3072918 v -3.3073 -3.30729 h 3.307292 3.307291 v -3.30729 -3.30729 h 6.614584 6.614583 v -3.30729 -3.30729 h 3.307292 3.307292 V 111.79166 98.562492 h 3.307291 3.307292 v -9.921875 -9.921875 h 9.921875 9.921875 v 3.307292 3.307291 h 3.307292 3.307292 v -3.307291 -3.307292 h 13.229167 13.229167 v 6.614583 6.614584 h 3.307288 3.3073 v 13.229171 13.22916 h 3.30729 3.30729 v 3.30729 3.3073 h 9.92187 9.92188 v 3.30729 3.30729 h 6.61458 6.61459 v 3.30729 3.30729 h 3.30729 3.30729 v 3.30729 3.3073 h 3.30729 3.30729 v 6.61458 6.61458 h 3.30729 3.3073 v 16.53646 16.53646 h -3.3073 -3.30729 v 6.61458 6.61459 h -3.30729 -3.30729 v 3.30729 3.30729 h -3.30729 -3.30729 v 3.30729 3.30729 h -3.3073 -3.30729 v 3.3073 3.30729 h -3.30729 -3.30729 v 3.30729 3.30729 h 6.61458 6.61459 v 3.30729 3.30729 h 3.30729 3.30729 v 3.3073 3.30729 h 3.30729 3.30729 v -3.30729 -3.3073 h 3.30729 3.3073 v -3.30729 -3.30729 h 9.92187 9.92188 v 3.30729 3.30729 h 6.61458 6.61458 v -3.30729 -3.30729 h 3.30729 3.3073 v -3.30729 -3.30729 h 3.30729 3.30729 v -3.30729 -3.3073 h 3.30729 3.30729 v 16.53646 16.53646 h -3.30729 -3.30729 v 3.30729 3.30729 h -3.30729 -3.30729 v 3.3073 3.30729 h -3.3073 -3.30729 v 3.30729 3.30729 h -6.61458 -6.61458 v -3.30729 -3.30729 h -6.61459 -6.61458 v 3.30729 3.30729 h -3.30729 -3.30729 v 3.30729 3.3073 H 158.75 152.13542 v 3.30729 3.30729 H 135.59896 119.0625 v -3.30729 -3.30729 h -6.61458 -6.61458 v 3.30729 3.30729 h -6.614588 -6.614584 v 3.30729 3.30729 H 76.06771 59.531251 Z m 19.84375,-6.61458 v -3.30729 h 3.307292 3.307292 v 3.30729 3.30729 h 3.307291 3.307292 v -3.30729 -3.30729 h 6.614584 6.614588 v -3.3073 -3.30729 H 92.604168 79.375001 v -3.30729 -3.30729 H 76.06771 72.760418 v -13.22917 -13.22917 h 3.307292 3.307291 v -3.30729 -3.30729 h 3.307292 3.307292 v -3.30729 -3.30729 h 6.614583 6.614584 v -3.30729 -3.3073 h 3.307288 3.3073 v -3.30729 -3.30729 h 3.30729 3.30729 v -3.30729 -3.30729 h 3.30729 3.30729 v -3.30729 -3.3073 h 3.30729 3.3073 v -3.30729 -3.30729 h 3.30729 3.30729 v -9.92187 -9.92188 h -3.30729 -3.30729 v -3.30729 -3.30729 h -3.3073 -3.30729 v -9.92188 -9.92187 h -3.30729 -3.30729 v -3.3073 -3.30729 h -3.30729 -3.30729 v 3.30729 3.3073 h -3.3073 -3.307288 v 3.30729 3.30729 H 95.91146 92.604168 v -3.30729 -3.30729 h -3.307292 -3.307291 v 6.61458 6.61458 h 6.614583 6.614584 v 3.30729 3.3073 H 95.91146 92.604168 v 9.92187 9.92188 h 3.307292 3.307292 v 3.30729 3.30729 H 95.91146 92.604168 v 3.30729 3.30729 h -3.307292 -3.307291 v 3.3073 3.30729 h 6.614583 6.614584 v -3.30729 -3.3073 h 3.307288 3.3073 v 6.61459 6.61458 h -9.92188 -9.921875 v 6.61458 6.61459 H 76.06771 66.145834 v 3.30729 3.30729 h 3.307292 3.307292 v 3.30729 3.30729 h -9.921875 -9.921875 v 3.3073 3.30729 h -3.307292 -3.307292 v 3.30729 3.30729 h 9.921875 9.921875 v 3.30729 3.30729 h -9.921875 -9.921875 v 6.61459 6.61458 h 13.229167 13.229167 v 3.30729 3.3073 h -6.614584 -6.614583 v 3.30729 3.30729 h 9.921875 9.921875 z m 26.458339,-89.29688 v -6.61458 h -3.3073 -3.307288 v -3.30729 -3.3073 h 3.307288 3.3073 v -3.30729 -3.30729 h -3.3073 -3.307288 v -3.30729 -3.30729 h 3.307288 3.3073 v 3.30729 3.30729 h 3.30729 3.30729 v -3.30729 -3.30729 h 3.30729 3.30729 v 3.30729 3.30729 h -3.30729 -3.30729 v 3.30729 3.30729 h 6.61458 6.61459 v 3.3073 3.30729 h -6.61459 -6.61458 v 3.30729 3.30729 h 3.30729 3.30729 v 3.30729 3.30729 h -6.61458 -6.61458 z m 46.30208,82.68229 v -3.30729 H 135.59896 119.0625 v -3.30729 -3.30729 h -3.30729 -3.30729 v 3.30729 3.30729 h 3.30729 3.30729 v 3.30729 3.3073 h 16.53646 16.53646 z m 46.30208,-13.22916 v -3.3073 h -6.61458 -6.61458 v 3.3073 3.30729 h 6.61458 6.61458 z M 59.531251,111.79166 V 98.562492 h -6.614583 -6.614584 v 13.229168 13.22917 h 6.614584 6.614583 z m 26.458334,0 V 98.562492 H 76.06771 66.145834 v 13.229168 13.22917 h 9.921876 9.921875 z"
         id="path57"
         inkscape:connector-curvature="0" />
      <path
         style="fill:#000000;stroke-width:0.26458335"
         d="m 59.531251,287.07812 v -3.30729 h -3.307292 -3.307291 v -3.30729 -3.30729 h -3.307292 -3.307292 v -3.3073 -3.30729 h -3.307292 -3.307291 v -13.22917 -13.22916 h 3.307291 3.307292 v -6.61459 -6.61458 h 3.307292 3.307292 v -3.30729 -3.30729 h 6.614583 6.614583 v -3.30729 -3.3073 h 3.307292 3.307292 v 3.3073 3.30729 h -3.307292 -3.307292 v 3.30729 3.30729 h -6.614583 -6.614583 v 6.61458 6.61459 h -3.307292 -3.307292 v 13.22916 13.22917 h 3.307292 3.307292 v 3.30729 3.3073 h 3.307291 3.307292 v 3.30729 3.30729 H 76.06771 92.604168 v -3.30729 -3.30729 h 6.614584 6.614588 v -3.3073 -3.30729 h 6.61458 6.61458 v 3.30729 3.3073 h 16.53646 16.53646 v -3.3073 -3.30729 h 6.61458 6.61459 v -3.30729 -3.30729 h 3.30729 3.30729 v -3.30729 -3.3073 h 6.61458 6.61459 v 3.3073 3.30729 h 6.61458 6.61458 v -3.30729 -3.3073 h 3.30729 3.3073 v -3.30729 -3.30729 h 3.30729 3.30729 v -9.92187 -9.92188 h -3.30729 -3.30729 v 3.30729 3.30729 h -3.3073 -3.30729 v 3.3073 3.30729 h -6.61458 -6.61458 v -3.30729 -3.3073 h -9.92188 -9.92187 v 3.3073 3.30729 h -3.3073 -3.30729 v 3.30729 3.30729 h -3.30729 -3.30729 v -3.30729 -3.30729 h -3.30729 -3.30729 v -3.30729 -3.3073 H 132.29167 119.0625 v 3.3073 3.30729 h -3.30729 -3.30729 v 3.30729 3.30729 h -3.30729 -3.30729 v -3.30729 -3.30729 h 3.30729 3.30729 v -3.30729 -3.3073 h 3.30729 3.30729 v -3.30729 -3.30729 h 3.30729 3.3073 v -3.30729 -3.30729 h 3.30729 3.30729 v -3.30729 -3.3073 h 3.30729 3.30729 v -3.30729 -3.30729 h 3.30729 3.3073 v -3.30729 -3.30729 h 3.30729 3.30729 v -6.61459 -6.61458 h 3.30729 3.30729 V 174.6302 158.09374 h -3.30729 -3.30729 v -6.61458 -6.61458 h -3.30729 -3.30729 v -3.3073 -3.30729 h -6.61459 -6.61458 v -3.30729 -3.30729 h -9.92188 -9.92187 v 3.30729 3.30729 h 3.30729 3.30729 v 3.30729 3.3073 h 3.30729 3.3073 v 9.92187 9.92188 h -3.3073 -3.30729 v 3.30729 3.30729 h -3.30729 -3.30729 v 13.22917 13.22916 h -3.30729 -3.30729 v 3.3073 3.30729 h -3.3073 -3.307288 v -3.30729 -3.3073 h 3.307288 3.3073 v -6.61458 -6.61458 h -3.3073 -3.307288 v 3.30729 3.30729 H 95.91146 92.604168 v 3.30729 3.30729 h -3.307292 -3.307291 v 3.3073 3.30729 h 3.307291 3.307292 v 3.30729 3.30729 h -3.307292 -3.307291 v 3.30729 3.30729 h -3.307292 -3.307292 v -3.30729 -3.30729 h 3.307292 3.307292 v -3.30729 -3.30729 h -6.614584 -6.614583 v 3.30729 3.30729 h -6.614584 -6.614583 v 3.30729 3.30729 H 42.994792 26.458334 v -3.30729 -3.30729 h 16.536458 16.536459 v -3.30729 -3.30729 h 6.614583 6.614584 v -3.30729 -3.3073 h 6.614583 6.614584 v -3.30729 -3.30729 h 3.307291 3.307292 v -3.30729 -3.30729 h 3.307292 3.307292 v -3.30729 -3.3073 h 3.307288 3.3073 v -3.30729 -3.30729 h 3.30729 3.30729 v -3.30729 -3.30729 h 3.30729 3.30729 v -9.92188 -9.92187 h -3.30729 -3.30729 v -3.3073 -3.30729 h -3.30729 -3.30729 v -6.61458 -6.61458 h -3.3073 -3.307288 V 108.48437 91.947909 H 95.91146 92.604168 v -3.307292 -3.307292 h -9.921875 -9.921875 v 3.307292 3.307292 h 6.614583 6.614584 v 3.307292 3.307291 h 3.307291 3.307292 v 13.229168 13.22917 h -3.307292 -3.307291 v 3.30729 3.30729 H 76.06771 66.145834 v -3.30729 -3.30729 h -3.307291 -3.307292 v 3.30729 3.30729 H 46.302084 33.072917 v 3.30729 3.30729 H 26.458334 19.84375 v 3.30729 3.3073 h -3.307291 -3.307292 v 16.53645 16.53646 h 3.307292 3.307291 v 3.3073 3.30729 h 9.921876 9.921875 v 3.30729 3.30729 h -3.307292 -3.307292 v 3.30729 3.30729 h -3.307291 -3.307292 v 3.3073 3.30729 H 23.151042 19.84375 v -6.61459 -6.61458 h -3.307291 -3.307292 v -3.30729 -3.30729 H 9.9218752 6.6145835 v -19.84375 -19.84375 h 3.3072917 3.3072918 v -3.3073 -3.30729 h 3.307292 3.307291 v -3.30729 -3.30729 h 6.614584 6.614583 v -3.30729 -3.30729 h 3.307292 3.307292 V 111.79166 98.562492 h 3.307291 3.307292 v -9.921875 -9.921875 h 9.921875 9.921875 v 3.307292 3.307291 h 3.307292 3.307292 v -3.307291 -3.307292 h 13.229167 13.229167 v 6.614583 6.614584 h 3.307288 3.3073 v 13.229171 13.22916 h 3.30729 3.30729 v 3.30729 3.3073 h 9.92187 9.92188 v 3.30729 3.30729 h 6.61458 6.61459 v 3.30729 3.30729 h 3.30729 3.30729 v 3.30729 3.3073 h 3.30729 3.30729 v 6.61458 6.61458 h 3.30729 3.3073 v 16.53646 16.53646 h -3.3073 -3.30729 v 6.61458 6.61459 h -3.30729 -3.30729 v 3.30729 3.30729 h -3.30729 -3.30729 v 3.30729 3.30729 h -3.3073 -3.30729 v 3.3073 3.30729 h -3.30729 -3.30729 v 3.30729 3.30729 h 6.61458 6.61459 v 3.30729 3.30729 h 3.30729 3.30729 v 3.3073 3.30729 h 3.30729 3.30729 v -3.30729 -3.3073 h 3.30729 3.3073 v -3.30729 -3.30729 h 9.92187 9.92188 v 3.30729 3.30729 h 6.61458 6.61458 v -3.30729 -3.30729 h 3.30729 3.3073 v -3.30729 -3.30729 h 3.30729 3.30729 v -3.30729 -3.3073 h 3.30729 3.30729 v 16.53646 16.53646 h -3.30729 -3.30729 v 3.30729 3.30729 h -3.30729 -3.30729 v 3.3073 3.30729 h -3.3073 -3.30729 v 3.30729 3.30729 h -6.61458 -6.61458 v -3.30729 -3.30729 h -6.61459 -6.61458 v 3.30729 3.30729 h -3.30729 -3.30729 v 3.30729 3.3073 H 158.75 152.13542 v 3.30729 3.30729 H 135.59896 119.0625 v -3.30729 -3.30729 h -6.61458 -6.61458 v 3.30729 3.30729 h -6.614588 -6.614584 v 3.30729 3.30729 H 76.06771 59.531251 Z m 0,-175.28646 V 98.562492 h -6.614583 -6.614584 v 13.229168 13.22917 h 6.614584 6.614583 z m 26.458334,0 V 98.562492 H 76.06771 66.145834 v 13.229168 13.22917 h 9.921876 9.921875 z M 66.145834,88.640617 v -3.307292 h -6.614583 -6.614583 v 3.307292 3.307292 h 6.614583 6.614583 z M 46.302084,194.47395 v -3.30729 h 3.307292 3.307292 v -3.30729 -3.30729 h 3.307291 3.307292 v -3.30729 -3.3073 h 3.307292 3.307291 v -3.30729 -3.30729 h 6.614584 6.614583 v -3.30729 -3.30729 h 3.307292 3.307292 v -3.3073 -3.30729 h 6.614583 6.614584 v 3.30729 3.3073 H 95.91146 92.604168 v 3.30729 3.30729 h -3.307292 -3.307291 v 3.30729 3.30729 h -3.307292 -3.307292 v 3.3073 3.30729 H 76.06771 72.760418 v 3.30729 3.30729 h -6.614584 -6.614583 v 3.30729 3.30729 H 52.916668 46.302084 Z M 19.84375,154.78645 v -3.30729 h 3.307292 3.307292 v 3.30729 3.30729 H 23.151042 19.84375 Z m 19.843751,0 v -3.30729 h 3.307291 3.307292 v 3.30729 3.30729 h -3.307292 -3.307291 z"
         id="path55"
         inkscape:connector-curvature="0" />
    </g>
  </g>
</svg>
